<svg width="64" height="24" viewBox="0 0 64 24" fill="none" xmlns="http://www.w3.org/2000/svg">
<path d="M10 12C9.0375 12 8.21354 11.6573 7.52813 10.9719C6.84271 10.2865 6.5 9.4625 6.5 8.5C6.5 7.5375 6.84271 6.71354 7.52813 6.02813C8.21354 5.34271 9.0375 5 10 5C10.9625 5 11.7865 5.34271 12.4719 6.02813C13.1573 6.71354 13.5 7.5375 13.5 8.5C13.5 9.4625 13.1573 10.2865 12.4719 10.9719C11.7865 11.6573 10.9625 12 10 12ZM3 17.25V16.55C3 16.0542 3.1276 15.5984 3.38281 15.1828C3.63802 14.7672 3.97708 14.45 4.4 14.2312C5.30417 13.7792 6.22292 13.4401 7.15625 13.2141C8.08958 12.988 9.0375 12.875 10 12.875C10.9625 12.875 11.9104 12.988 12.8438 13.2141C13.7771 13.4401 14.6958 13.7792 15.6 14.2312C16.0229 14.45 16.362 14.7672 16.6172 15.1828C16.8724 15.5984 17 16.0542 17 16.55V17.25C17 17.7312 16.8286 18.1432 16.4859 18.4859C16.1432 18.8286 15.7312 19 15.25 19H4.75C4.26875 19 3.85677 18.8286 3.51406 18.4859C3.17135 18.1432 3 17.7312 3 17.25ZM4.75 17.25H15.25V16.55C15.25 16.3896 15.2099 16.2437 15.1297 16.1125C15.0495 15.9812 14.9438 15.8792 14.8125 15.8063C14.025 15.4125 13.2302 15.1172 12.4281 14.9203C11.626 14.7234 10.8167 14.625 10 14.625C9.18333 14.625 8.37396 14.7234 7.57188 14.9203C6.76979 15.1172 5.975 15.4125 5.1875 15.8063C5.05625 15.8792 4.95052 15.9812 4.87031 16.1125C4.7901 16.2437 4.75 16.3896 4.75 16.55V17.25ZM10 10.25C10.4812 10.25 10.8932 10.0786 11.2359 9.73594C11.5786 9.39323 11.75 8.98125 11.75 8.5C11.75 8.01875 11.5786 7.60677 11.2359 7.26406C10.8932 6.92135 10.4812 6.75 10 6.75C9.51875 6.75 9.10677 6.92135 8.76406 7.26406C8.42135 7.60677 8.25 8.01875 8.25 8.5C8.25 8.98125 8.42135 9.39323 8.76406 9.73594C9.10677 10.0786 9.51875 10.25 10 10.25Z" fill="#005DFF"/>
<path d="M25.5469 7.07812C27.0208 7.07812 28.0964 7.36719 28.7734 7.94531C29.4557 8.51823 29.7969 9.34115 29.7969 10.4141C29.7969 10.8984 29.7161 11.3594 29.5547 11.7969C29.3984 12.2292 29.1432 12.612 28.7891 12.9453C28.4349 13.2734 27.9688 13.5339 27.3906 13.7266C26.8177 13.9141 26.1146 14.0078 25.2812 14.0078H23.8906V18.5H22.5625V7.07812H25.5469ZM25.4219 8.21094H23.8906V12.8672H25.1328C25.862 12.8672 26.4688 12.7891 26.9531 12.6328C27.4427 12.4766 27.8099 12.224 28.0547 11.875C28.2995 11.5208 28.4219 11.0521 28.4219 10.4688C28.4219 9.70833 28.1797 9.14323 27.6953 8.77344C27.2109 8.39844 26.4531 8.21094 25.4219 8.21094ZM35.8828 9.78125C36.0547 9.78125 36.2344 9.79167 36.4219 9.8125C36.6094 9.82812 36.776 9.85156 36.9219 9.88281L36.7578 11.0859C36.6172 11.0495 36.4609 11.0208 36.2891 11C36.1172 10.9792 35.9557 10.9688 35.8047 10.9688C35.4609 10.9688 35.1354 11.0391 34.8281 11.1797C34.526 11.3151 34.2604 11.513 34.0312 11.7734C33.8021 12.0286 33.6224 12.3385 33.4922 12.7031C33.362 13.0625 33.2969 13.4635 33.2969 13.9062V18.5H31.9922V9.9375H33.0703L33.2109 11.5156H33.2656C33.4427 11.1979 33.6562 10.9089 33.9062 10.6484C34.1562 10.3828 34.4453 10.1719 34.7734 10.0156C35.1068 9.85938 35.4766 9.78125 35.8828 9.78125ZM45.9219 14.2031C45.9219 14.9062 45.8307 15.5339 45.6484 16.0859C45.4661 16.638 45.2031 17.1042 44.8594 17.4844C44.5156 17.8646 44.099 18.1562 43.6094 18.3594C43.125 18.5573 42.5755 18.6562 41.9609 18.6562C41.388 18.6562 40.862 18.5573 40.3828 18.3594C39.9089 18.1562 39.4974 17.8646 39.1484 17.4844C38.8047 17.1042 38.5365 16.638 38.3438 16.0859C38.1562 15.5339 38.0625 14.9062 38.0625 14.2031C38.0625 13.2656 38.2214 12.4688 38.5391 11.8125C38.8568 11.151 39.3099 10.6484 39.8984 10.3047C40.4922 9.95573 41.1979 9.78125 42.0156 9.78125C42.7969 9.78125 43.4792 9.95573 44.0625 10.3047C44.651 10.6536 45.1068 11.1589 45.4297 11.8203C45.7578 12.4766 45.9219 13.2708 45.9219 14.2031ZM39.4062 14.2031C39.4062 14.8906 39.4974 15.487 39.6797 15.9922C39.862 16.4974 40.1432 16.888 40.5234 17.1641C40.9036 17.4401 41.3932 17.5781 41.9922 17.5781C42.5859 17.5781 43.0729 17.4401 43.4531 17.1641C43.8385 16.888 44.1224 16.4974 44.3047 15.9922C44.487 15.487 44.5781 14.8906 44.5781 14.2031C44.5781 13.5208 44.487 12.9323 44.3047 12.4375C44.1224 11.9375 43.8411 11.5521 43.4609 11.2812C43.0807 11.0104 42.5885 10.875 41.9844 10.875C41.0938 10.875 40.4401 11.1693 40.0234 11.7578C39.612 12.3464 39.4062 13.1615 39.4062 14.2031ZM51.9766 10.9531H49.8438V18.5H48.5469V10.9531H47.0312V10.3281L48.5469 9.89844V9.32812C48.5469 8.60938 48.6536 8.02604 48.8672 7.57812C49.0807 7.125 49.3906 6.79167 49.7969 6.57812C50.2031 6.36458 50.6979 6.25781 51.2812 6.25781C51.6094 6.25781 51.9089 6.28646 52.1797 6.34375C52.4557 6.40104 52.6979 6.46615 52.9062 6.53906L52.5703 7.5625C52.3932 7.50521 52.1927 7.45312 51.9688 7.40625C51.75 7.35417 51.526 7.32812 51.2969 7.32812C50.8021 7.32812 50.4349 7.48958 50.1953 7.8125C49.9609 8.13021 49.8438 8.63021 49.8438 9.3125V9.9375H51.9766V10.9531ZM54.8438 9.9375V18.5H53.5469V9.9375H54.8438ZM54.2109 6.73438C54.4245 6.73438 54.6068 6.80469 54.7578 6.94531C54.9141 7.08073 54.9922 7.29427 54.9922 7.58594C54.9922 7.8724 54.9141 8.08594 54.7578 8.22656C54.6068 8.36719 54.4245 8.4375 54.2109 8.4375C53.987 8.4375 53.7995 8.36719 53.6484 8.22656C53.5026 8.08594 53.4297 7.8724 53.4297 7.58594C53.4297 7.29427 53.5026 7.08073 53.6484 6.94531C53.7995 6.80469 53.987 6.73438 54.2109 6.73438ZM58.8906 18.5H57.5859V6.34375H58.8906V18.5Z" fill="#42526E"/>
</svg>
