<svg width="74" height="24" viewBox="0 0 74 24" fill="none" xmlns="http://www.w3.org/2000/svg">
<path d="M4.63636 16.8C4.18636 16.8 3.80114 16.6433 3.48068 16.33C3.16023 16.0167 3 15.64 3 15.2V5.6C3 5.16 3.16023 4.78333 3.48068 4.47C3.80114 4.15667 4.18636 4 4.63636 4H17.7273C18.1773 4 18.5625 4.15667 18.883 4.47C19.2034 4.78333 19.3636 5.16 19.3636 5.6V8.8C19.3636 9.02667 19.2852 9.21667 19.1284 9.37C18.9716 9.52333 18.7773 9.6 18.5455 9.6C18.3136 9.6 18.1193 9.52333 17.9625 9.37C17.8057 9.21667 17.7273 9.02667 17.7273 8.8V7.2L11.6114 10.94C11.5432 10.98 11.4716 11.01 11.3966 11.03C11.3216 11.05 11.25 11.06 11.1818 11.06C11.1136 11.06 11.042 11.05 10.967 11.03C10.892 11.01 10.8205 10.98 10.7523 10.94L4.63636 7.2V15.2H12C12.2318 15.2 12.4261 15.2767 12.583 15.43C12.7398 15.5833 12.8182 15.7733 12.8182 16C12.8182 16.2267 12.7398 16.4167 12.583 16.57C12.4261 16.7233 12.2318 16.8 12 16.8H4.63636ZM11.1818 9.6L17.7273 5.6H4.63636L11.1818 9.6ZM17.7273 20C16.8273 20 16.0568 19.6867 15.4159 19.06C14.775 18.4333 14.4545 17.68 14.4545 16.8V13.2C14.4545 12.64 14.6523 12.1667 15.0477 11.78C15.4432 11.3933 15.9273 11.2 16.5 11.2C17.0727 11.2 17.5568 11.3933 17.9523 11.78C18.3477 12.1667 18.5455 12.64 18.5455 13.2V16C18.5455 16.2267 18.467 16.4167 18.3102 16.57C18.1534 16.7233 17.9591 16.8 17.7273 16.8C17.4955 16.8 17.3011 16.7233 17.1443 16.57C16.9875 16.4167 16.9091 16.2267 16.9091 16V13.2C16.9091 13.0933 16.8682 13 16.7864 12.92C16.7045 12.84 16.6091 12.8 16.5 12.8C16.3909 12.8 16.2955 12.84 16.2136 12.92C16.1318 13 16.0909 13.0933 16.0909 13.2V16.8C16.0909 17.24 16.2511 17.6167 16.5716 17.93C16.892 18.2433 17.2773 18.4 17.7273 18.4C18.1773 18.4 18.5625 18.2433 18.883 17.93C19.2034 17.6167 19.3636 17.24 19.3636 16.8V14.4C19.3636 14.1733 19.442 13.9833 19.5989 13.83C19.7557 13.6767 19.95 13.6 20.1818 13.6C20.4136 13.6 20.608 13.6767 20.7648 13.83C20.9216 13.9833 21 14.1733 21 14.4V16.8C21 17.68 20.6795 18.4333 20.0386 19.06C19.3977 19.6867 18.6273 20 17.7273 20Z" fill="#005DFF"/>
<path d="M32.9219 18.5H26.5625V7.07812H32.9219V8.25H27.8906V11.9453H32.6328V13.1016H27.8906V17.3281H32.9219V18.5ZM34.5312 14.7812V13.625H38.4062V14.7812H34.5312ZM49.7109 9.78125C50.6536 9.78125 51.3646 10.0286 51.8438 10.5234C52.3229 11.013 52.5625 11.8021 52.5625 12.8906V18.5H51.2812V12.9531C51.2812 12.2604 51.1302 11.7422 50.8281 11.3984C50.5312 11.0495 50.0885 10.875 49.5 10.875C48.6719 10.875 48.0703 11.1146 47.6953 11.5938C47.3203 12.0729 47.1328 12.7786 47.1328 13.7109V18.5H45.8438V12.9531C45.8438 12.4896 45.776 12.1042 45.6406 11.7969C45.5104 11.4896 45.3125 11.2604 45.0469 11.1094C44.7865 10.9531 44.4557 10.875 44.0547 10.875C43.487 10.875 43.0312 10.9922 42.6875 11.2266C42.3438 11.4609 42.0938 11.8099 41.9375 12.2734C41.7865 12.7318 41.7109 13.2969 41.7109 13.9688V18.5H40.4141V9.9375H41.4609L41.6562 11.1484H41.7266C41.8984 10.8516 42.1146 10.6016 42.375 10.3984C42.6354 10.1953 42.9271 10.0417 43.25 9.9375C43.5729 9.83333 43.9167 9.78125 44.2812 9.78125C44.9323 9.78125 45.4766 9.90365 45.9141 10.1484C46.3568 10.388 46.6771 10.7552 46.875 11.25H46.9453C47.2266 10.7552 47.612 10.388 48.1016 10.1484C48.5911 9.90365 49.1276 9.78125 49.7109 9.78125ZM58.4297 9.79688C59.4505 9.79688 60.2083 10.026 60.7031 10.4844C61.1979 10.9427 61.4453 11.6745 61.4453 12.6797V18.5H60.5L60.25 17.2344H60.1875C59.9479 17.5469 59.6979 17.8099 59.4375 18.0234C59.1771 18.2318 58.875 18.3906 58.5312 18.5C58.1927 18.6042 57.776 18.6562 57.2812 18.6562C56.7604 18.6562 56.2969 18.5651 55.8906 18.3828C55.4896 18.2005 55.1719 17.9245 54.9375 17.5547C54.7083 17.1849 54.5938 16.7161 54.5938 16.1484C54.5938 15.2943 54.9323 14.638 55.6094 14.1797C56.2865 13.7214 57.3177 13.4714 58.7031 13.4297L60.1797 13.3672V12.8438C60.1797 12.1042 60.0208 11.5859 59.7031 11.2891C59.3854 10.9922 58.9375 10.8438 58.3594 10.8438C57.9115 10.8438 57.4844 10.9089 57.0781 11.0391C56.6719 11.1693 56.2865 11.3229 55.9219 11.5L55.5234 10.5156C55.9089 10.3177 56.3516 10.1484 56.8516 10.0078C57.3516 9.86719 57.8776 9.79688 58.4297 9.79688ZM60.1641 14.2812L58.8594 14.3359C57.7917 14.3776 57.0391 14.5521 56.6016 14.8594C56.1641 15.1667 55.9453 15.6016 55.9453 16.1641C55.9453 16.6536 56.0938 17.0156 56.3906 17.25C56.6875 17.4844 57.0807 17.6016 57.5703 17.6016C58.3307 17.6016 58.9531 17.3906 59.4375 16.9688C59.9219 16.5469 60.1641 15.9141 60.1641 15.0703V14.2812ZM65.4141 9.9375V18.5H64.1172V9.9375H65.4141ZM64.7812 6.73438C64.9948 6.73438 65.1771 6.80469 65.3281 6.94531C65.4844 7.08073 65.5625 7.29427 65.5625 7.58594C65.5625 7.8724 65.4844 8.08594 65.3281 8.22656C65.1771 8.36719 64.9948 8.4375 64.7812 8.4375C64.5573 8.4375 64.3698 8.36719 64.2188 8.22656C64.0729 8.08594 64 7.8724 64 7.58594C64 7.29427 64.0729 7.08073 64.2188 6.94531C64.3698 6.80469 64.5573 6.73438 64.7812 6.73438ZM69.4688 18.5H68.1641V6.34375H69.4688V18.5Z" fill="#42526E"/>
</svg>
